# xmcd CD database file
#
# Track frame offsets:
#	150
#	23195
#	46191
#	63048
#	90262
#	103834
#	126348
#	148699
#	173787
#	191979
#	211044
#	234302
#	254177
#	276647
#	296719
#	313996
#
# Disc length: 4556 seconds
#
# Revision: 0
# Processed by: cddbd v1.5.1PL0 Copyright (c) Steve Scherf et al.
# Submitted via: CDex 1.51
#
DISCID=f711ca10
DTITLE=SALSA DEL NUEVO GABINETE - Pista 01
DYEAR=2004
DGENRE=Salsa
TTITLE0=SUEÑO PROHIBIDO
TTITLE1=MI PRIMAVERA-MICHELLE
TTITLE2=EL SOLTERO SOLICITADO
TTITLE3=COMO TU NO HABIA NADIE
TTITLE4=EL CAMINANTE
TTITLE5=ESTE LOCO QUE TE MIRA
TTITLE6=TRISTE FINAL
TTITLE7=SIENTEME
TTITLE8=ESA MUJER QUE TE MIRA
TTITLE9=CON LA MIRADA EL CIELO
TTITLE10=MIRA PA' HAI
TTITLE11=TENGO GANAS
TTITLE12=EL INSTINTO
TTITLE13=EL GALLERO
TTITLE14=SIN TU CARIÑO
TTITLE15=PEOR PA' TI
EXTD=YEAR: 2004
EXTT0=
EXTT1=
EXTT2=
EXTT3=
EXTT4=
EXTT5=
EXTT6=
EXTT7=
EXTT8=
EXTT9=
EXTT10=
EXTT11=
EXTT12=
EXTT13=
EXTT14=
EXTT15=
PLAYORDER=
